<?xml version="1.0" encoding="UTF-8"?>
<svg width="10px" height="6px" viewBox="0 0 48 11" version="1.1" xmlns="http://www.w3.org/2000/svg" xmlns:xlink="http://www.w3.org/1999/xlink">
    <title>Group</title>
    <defs>
        <polygon id="path-1" points="0.0144 0.2148 47.81688 0.2148 47.81688 10.56 0.0144 10.56"></polygon>
    </defs>
    <g id="Page-1" stroke="none" stroke-width="1" fill="none" fill-rule="evenodd">
        <g id="Group">
            <g id="Group-5">
                <mask id="mask-2" fill="white">
                    <use xlink:href="#path-1"></use>
                </mask>
                <g id="Clip-2"></g>
                <polyline id="Fill-1" fill="#FFFFFE" mask="url(#mask-2)" points="0 10.37976 0 0.36504 7.34232 0.36504 7.34232 2.61696 2.5824 2.61696 2.5824 4.29192 7.23696 4.29192 7.23696 6.54432 2.5824 6.54432 2.5824 10.37976 0 10.37976"></polyline>
                <path d="M29.15112,6.32592 L29.15112,0.36504 L31.77864,0.36504 L31.77864,6.23592 C31.77864,7.42176 32.48424,8.2776 33.89544,8.2776 C35.27688,8.2776 35.9976,7.42176 35.9976,6.23592 L35.9976,0.36504 L38.61024,0.36504 L38.61024,6.3108 C38.61024,8.8032 37.09368,10.56 33.89544,10.56 C30.6672,10.56 29.15112,8.78832 29.15112,6.32592" id="Fill-3" fill="#FFFFFE" mask="url(#mask-2)"></path>
                <path d="M39.19824,8.96856 L40.56456,7.03128 C41.28552,7.752 42.39624,8.35272 43.76304,8.35272 C44.64888,8.35272 45.18912,8.00736 45.18912,7.52688 C45.18912,7.00152 44.43864,6.8364 43.47768,6.64104 C41.82576,6.3108 39.5136,5.86032 39.5136,3.39792 C39.5136,1.71648 40.94016,0.2148 43.50768,0.2148 C45.11448,0.2148 46.51056,0.69528 47.5764,1.61112 L46.1652,3.45792 C45.32448,2.76744 44.22816,2.42184 43.2372,2.42184 C42.48648,2.42184 42.15624,2.72232 42.15624,3.14256 C42.15624,3.62304 42.92208,3.7884 43.88304,4.01352 C45.53448,4.35888 47.81688,4.85448 47.81688,7.21152 C47.81688,9.22368 46.33032,10.56 43.6428,10.56 C41.61552,10.56 40.20456,9.92952 39.19824,8.96856" id="Fill-4" fill="#FFFFFE" mask="url(#mask-2)"></path>
            </g>
            <path d="M15.41112,4.00968 C15.43488,4.05 15.45744,4.09056 15.4788,4.13232 L15.5352,4.24992 C15.63192,4.46256 15.70056,4.68984 15.73896,4.92768 L17.48232,2.62224 C16.60368,1.2144 15.07032,0.26208 13.30632,0.18888 L15.41112,4.00968" id="Fill-6" fill="#FFFFFE"></path>
            <path d="M13.05264,2.6724 C13.06488,2.6724 13.07664,2.67072 13.08936,2.67072 C13.12368,2.67072 13.15704,2.67456 13.19112,2.67576 L13.39488,2.6892 C13.68696,2.72232 13.96392,2.80344 14.21976,2.92248 L13.28712,0.18768 C13.22088,0.18528 13.15584,0.17784 13.08936,0.17784 C11.25576,0.17784 9.64872,1.1328 8.72808,2.56992 L13.05264,2.6724" id="Fill-7" fill="#FFFFFE"></path>
            <path d="M15.5676,6.39744 C15.52056,6.50976 15.46392,6.6168 15.40248,6.72096 L15.3672,6.77856 C15.2136,7.02456 15.02376,7.24512 14.80128,7.4292 L17.66904,7.77576 C18.05088,7.0536 18.26928,6.2316 18.26928,5.358 C18.26928,4.35816 17.98128,3.42792 17.49072,2.6364 L15.5676,6.39744" id="Fill-8" fill="#FFFFFE"></path>
            <path d="M10.66992,6.52176 L10.64664,6.47328 C10.5384,6.23688 10.464,5.98248 10.42848,5.71512 L8.62032,7.96848 C9.51912,9.504 11.1816,10.53792 13.08936,10.53792 L10.92744,6.94968 C10.82904,6.816 10.74288,6.67296 10.66992,6.52176" id="Fill-9" fill="#FFFFFE"></path>
            <path d="M13.05216,8.04336 C12.69696,8.03832 12.35856,7.96608 12.04968,7.83624 L13.08936,10.53792 C15.06816,10.53792 16.78632,9.42768 17.65872,7.79664 L13.05216,8.04336" id="Fill-10" fill="#FFFFFE"></path>
            <path d="M10.62792,4.28136 C10.69368,4.13136 10.77144,3.98784 10.8624,3.85344 L10.86504,3.84888 L10.8648,3.85056 C11.0508,3.57648 11.28672,3.3396 11.55864,3.15072 L8.72208,2.57976 C8.20992,3.38304 7.9092,4.33464 7.9092,5.358 C7.9092,6.30624 8.16816,7.19232 8.61336,7.9572 L10.62792,4.28136" id="Fill-11" fill="#FFFFFE"></path>
            <path d="M23.93664,8.29968 C22.34664,8.29968 21.0576,7.01088 21.0576,5.42088 C21.0576,3.83088 22.34664,2.54184 23.93664,2.54184 C24.96072,2.54184 25.85736,3.07824 26.36784,3.88344 L28.4232,2.89992 C27.55248,1.28496 25.84584,0.18672 23.8824,0.18672 C21.0348,0.18672 18.72624,2.49528 18.72624,5.34288 C18.72624,8.19048 21.0348,10.49904 23.8824,10.49904 C25.81392,10.49904 27.49464,9.43512 28.37808,7.86312 L26.37144,6.95208 C25.86168,7.76088 24.96312,8.29968 23.93664,8.29968" id="Fill-12" fill="#FFFFFE"></path>
        </g>
    </g>
</svg>